<svg width="16" height="16" viewBox="0 0 16 16" fill="none" xmlns="http://www.w3.org/2000/svg">
<g clip-path="url(#clip0_32137_1618)">
<path d="M4.00371 15.8485H0.424194C0.189841 15.8485 -0.000120163 15.6585 -0.000120163 15.4242V7.13659C-0.000120163 6.90227 0.189841 6.71228 0.424194 6.71228H4.00374L4.00371 15.8485Z" fill="url(#paint0_linear_32137_1618)"/>
<path d="M11.996 15.8485H15.5755C15.8099 15.8485 15.9998 15.6585 15.9998 15.4242V7.13659C15.9998 6.90227 15.8099 6.71228 15.5755 6.71228H11.996V15.8485Z" fill="url(#paint1_linear_32137_1618)"/>
<path d="M15.9999 10.0474V15.4241C15.9999 15.6586 15.81 15.8485 15.5755 15.8485H11.996V6.71228H12.6651L15.9999 10.0474Z" fill="url(#paint2_linear_32137_1618)"/>
<path d="M3.33337 3.43542H12.6663V15.8484H3.33337V3.43542Z" fill="url(#paint3_linear_32137_1618)"/>
<path d="M11.8565 15.8484H4.14308C3.92445 15.8484 3.74719 15.6712 3.74719 15.4525V4.30568C3.74719 4.08705 3.92445 3.90979 4.14308 3.90979H11.8565C12.0751 3.90979 12.2524 4.08705 12.2524 4.30568V15.4525C12.2524 15.6712 12.0751 15.8484 11.8565 15.8484Z" fill="url(#paint4_linear_32137_1618)"/>
<path d="M11.3524 4.55688C11.6027 4.55688 11.8063 4.76049 11.8063 5.01075V6.48809C11.8063 6.73831 11.6027 6.94192 11.3524 6.94192H9.8751C9.62484 6.94192 9.42126 6.73831 9.42126 6.48809V5.01075C9.42126 4.76049 9.62487 4.55688 9.8751 4.55688H11.3524Z" fill="url(#paint5_linear_32137_1618)"/>
<path d="M11.3524 7.15198C11.6027 7.15198 11.8063 7.35559 11.8063 7.60581V9.08318C11.8063 9.3334 11.6027 9.53701 11.3524 9.53701H9.8751C9.62484 9.53701 9.42126 9.3334 9.42126 9.08318V7.60581C9.42126 7.35559 9.62487 7.15198 9.8751 7.15198H11.3524Z" fill="url(#paint6_linear_32137_1618)"/>
<path d="M11.3524 9.74707C11.6027 9.74707 11.8063 9.95068 11.8063 10.2009V11.6782C11.8063 11.9285 11.6027 12.1321 11.3524 12.1321H9.8751C9.62484 12.1321 9.42126 11.9285 9.42126 11.6782V10.2009C9.42126 9.95068 9.62487 9.74707 9.8751 9.74707H11.3524Z" fill="url(#paint7_linear_32137_1618)"/>
<path d="M6.12465 4.55688C6.37491 4.55688 6.57849 4.76049 6.57849 5.01075V6.48809C6.57849 6.73831 6.37488 6.94192 6.12465 6.94192H4.64732C4.39706 6.94192 4.19348 6.73831 4.19348 6.48809V5.01075C4.19348 4.76049 4.39709 4.55688 4.64732 4.55688H6.12465Z" fill="url(#paint8_linear_32137_1618)"/>
<path d="M6.12465 7.15198C6.37491 7.15198 6.57849 7.35559 6.57849 7.60581V9.08318C6.57849 9.3334 6.37488 9.53701 6.12465 9.53701H4.64732C4.39706 9.53701 4.19348 9.3334 4.19348 9.08318V7.60581C4.19348 7.35559 4.39709 7.15198 4.64732 7.15198H6.12465Z" fill="url(#paint9_linear_32137_1618)"/>
<path d="M6.12465 9.74707C6.37491 9.74707 6.57849 9.95068 6.57849 10.2009V11.6782C6.57849 11.9285 6.37488 12.1321 6.12465 12.1321H4.64732C4.39706 12.1321 4.19348 11.9285 4.19348 11.6782V10.2009C4.19348 9.95068 4.39709 9.74707 4.64732 9.74707H6.12465Z" fill="url(#paint10_linear_32137_1618)"/>
<path d="M8.73842 4.55688C8.98868 4.55688 9.19226 4.76049 9.19226 5.01075V6.48809C9.19226 6.73831 8.98865 6.94192 8.73842 6.94192H7.26109C7.01083 6.94192 6.80725 6.73831 6.80725 6.48809V5.01075C6.80725 4.76049 7.01086 4.55688 7.26109 4.55688H8.73842Z" fill="url(#paint11_linear_32137_1618)"/>
<path d="M8.73842 7.15198C8.98868 7.15198 9.19226 7.35559 9.19226 7.60581V9.08318C9.19226 9.3334 8.98865 9.53701 8.73842 9.53701H7.26109C7.01083 9.53701 6.80725 9.3334 6.80725 9.08318V7.60581C6.80725 7.35559 7.01086 7.15198 7.26109 7.15198H8.73842Z" fill="url(#paint12_linear_32137_1618)"/>
<path d="M8.73842 9.74707C8.98868 9.74707 9.19226 9.95068 9.19226 10.2009V11.6782C9.19226 11.9285 8.98865 12.1321 8.73842 12.1321H7.26109C7.01083 12.1321 6.80725 11.9285 6.80725 11.6782V10.2009C6.80725 9.95068 7.01086 9.74707 7.26109 9.74707H8.73842Z" fill="url(#paint13_linear_32137_1618)"/>
<path d="M12.6663 3.43542H3.33337V3.57817L12.6663 12.9111V3.43542Z" fill="url(#paint14_linear_32137_1618)"/>
<path d="M7.99988 15.8484H12.2184C12.4658 15.8484 12.6664 15.6721 12.6664 15.4547V3.43542H7.99988V15.8484Z" fill="url(#paint15_linear_32137_1618)"/>
<path d="M10.0108 12.8017C9.98744 12.7531 9.93819 12.7192 9.88065 12.7192H6.11918C6.03927 12.7192 5.97449 12.784 5.97449 12.8639V13.0569C5.97449 13.1144 6.00831 13.1637 6.05693 13.187L8.71839 15.8485H11.8566H11.8566H12.2464C12.4691 15.8485 12.6508 15.6751 12.665 15.456L10.0108 12.8017Z" fill="url(#paint16_linear_32137_1618)"/>
<path d="M6.25476 13.1415H9.74486V15.8485H6.25476V13.1415Z" fill="url(#paint17_linear_32137_1618)"/>
<path d="M8.71832 15.8485H9.74486V13.1415H6.25476V13.3849L8.71832 15.8485Z" fill="url(#paint18_linear_32137_1618)"/>
<path d="M9.58516 15.8484H6.41443V13.5285C6.41443 13.4292 6.49493 13.3486 6.59422 13.3486H9.40533C9.50462 13.3486 9.58513 13.4291 9.58513 13.5285L9.58516 15.8484Z" fill="url(#paint19_linear_32137_1618)"/>
<path d="M7.99988 13.1415H9.74491V15.8485H7.99988V13.1415Z" fill="url(#paint20_linear_32137_1618)"/>
<path d="M9.88065 13.2016H6.11918C6.03927 13.2016 5.97449 13.1368 5.97449 13.0569V12.8639C5.97449 12.784 6.03927 12.7192 6.11918 12.7192H9.88065C9.96056 12.7192 10.0253 12.784 10.0253 12.8639V13.0569C10.0253 13.1368 9.96056 13.2016 9.88065 13.2016Z" fill="url(#paint21_linear_32137_1618)"/>
<path d="M4.64722 11.9024C4.52359 11.9024 4.42297 11.8018 4.42297 11.6781V10.2008C4.42297 10.0771 4.52355 9.97656 4.64722 9.97656H6.12456C6.2482 9.97656 6.34881 10.0771 6.34881 10.2008V11.6781C6.34881 11.8018 6.24823 11.9024 6.12456 11.9024H4.64722Z" fill="url(#paint22_linear_32137_1618)"/>
<path d="M4.64722 9.30727C4.52359 9.30727 4.42297 9.20669 4.42297 9.08305V7.60569C4.42297 7.48205 4.52355 7.38147 4.64722 7.38147H6.12456C6.2482 7.38147 6.34881 7.48205 6.34881 7.60569V9.08305C6.34881 9.20669 6.24823 9.30727 6.12456 9.30727H4.64722Z" fill="url(#paint23_linear_32137_1618)"/>
<path d="M4.64722 6.71227C4.52359 6.71227 4.42297 6.61169 4.42297 6.48805V5.01072C4.42297 4.88708 4.52355 4.7865 4.64722 4.7865H6.12456C6.2482 4.7865 6.34881 4.88708 6.34881 5.01072V6.48805C6.34881 6.61169 6.24823 6.71227 6.12456 6.71227H4.64722Z" fill="url(#paint24_linear_32137_1618)"/>
<path d="M9.87501 11.9024C9.75137 11.9024 9.65076 11.8018 9.65076 11.6781V10.2008C9.65076 10.0771 9.75134 9.97656 9.87501 9.97656H11.3523C11.476 9.97656 11.5766 10.0771 11.5766 10.2008V11.6781C11.5766 11.8018 11.476 11.9024 11.3523 11.9024H9.87501Z" fill="url(#paint25_linear_32137_1618)"/>
<path d="M9.87501 9.30727C9.75137 9.30727 9.65076 9.20669 9.65076 9.08305V7.60569C9.65076 7.48205 9.75134 7.38147 9.87501 7.38147H11.3523C11.476 7.38147 11.5766 7.48205 11.5766 7.60569V9.08305C11.5766 9.20669 11.476 9.30727 11.3523 9.30727H9.87501Z" fill="url(#paint26_linear_32137_1618)"/>
<path d="M9.87501 6.71227C9.75137 6.71227 9.65076 6.61169 9.65076 6.48805V5.01072C9.65076 4.88708 9.75134 4.7865 9.87501 4.7865H11.3523C11.476 4.7865 11.5766 4.88708 11.5766 5.01072V6.48805C11.5766 6.61169 11.476 6.71227 11.3523 6.71227H9.87501Z" fill="url(#paint27_linear_32137_1618)"/>
<path d="M7.26124 11.9024C7.1376 11.9024 7.03699 11.8018 7.03699 11.6781V10.2008C7.03699 10.0771 7.13757 9.97656 7.26124 9.97656H8.73857C8.86221 9.97656 8.96282 10.0771 8.96282 10.2008V11.6781C8.96282 11.8018 8.86224 11.9024 8.73857 11.9024H7.26124Z" fill="url(#paint28_linear_32137_1618)"/>
<path d="M7.26124 9.30727C7.1376 9.30727 7.03699 9.20669 7.03699 9.08305V7.60569C7.03699 7.48205 7.13757 7.38147 7.26124 7.38147H8.73857C8.86221 7.38147 8.96282 7.48205 8.96282 7.60569V9.08305C8.96282 9.20669 8.86224 9.30727 8.73857 9.30727H7.26124Z" fill="url(#paint29_linear_32137_1618)"/>
<path d="M7.26124 6.71227C7.1376 6.71227 7.03699 6.61169 7.03699 6.48805V5.01072C7.03699 4.88708 7.13757 4.7865 7.26124 4.7865H8.73857C8.86221 4.7865 8.96282 4.88708 8.96282 5.01072V6.48805C8.96282 6.61169 8.86224 6.71227 8.73857 6.71227H7.26124Z" fill="url(#paint30_linear_32137_1618)"/>
<path d="M3.52942 2.45435H3.77996V3.13488H3.52942V2.45435Z" fill="url(#paint31_linear_32137_1618)"/>
<path d="M4.72546 2.45435H4.976V3.13488H4.72546V2.45435Z" fill="url(#paint32_linear_32137_1618)"/>
<path d="M6.18518 2.45435H6.43572V3.13488H6.18518V2.45435Z" fill="url(#paint33_linear_32137_1618)"/>
<path d="M8.07117 2.45435H8.32171V3.13488H8.07117V2.45435Z" fill="url(#paint34_linear_32137_1618)"/>
<path d="M9.98792 2.45435H10.2385V3.13488H9.98792V2.45435Z" fill="url(#paint35_linear_32137_1618)"/>
<path d="M11.7594 2.45435H12.0099V3.13488H11.7594V2.45435Z" fill="url(#paint36_linear_32137_1618)"/>
<path d="M3.38147 2.48693V0.311967C3.38147 0.259543 3.40767 0.219637 3.46012 0.19228C3.51254 0.164924 3.57523 0.151245 3.6482 0.151245C3.72114 0.151245 3.78382 0.164924 3.83628 0.19228C3.8887 0.219637 3.91493 0.259543 3.91493 0.311967V1.1498H4.59546V0.311967C4.59546 0.259543 4.62166 0.219637 4.67411 0.19228C4.72654 0.164924 4.78922 0.151245 4.86219 0.151245C4.93513 0.151245 4.99781 0.164924 5.05027 0.19228C5.10269 0.219637 5.12892 0.259543 5.12892 0.311967V2.48693C5.12892 2.53942 5.10269 2.57986 5.05027 2.60834C4.99778 2.63686 4.9351 2.6511 4.86219 2.6511C4.78922 2.6511 4.72654 2.63689 4.67411 2.60834C4.62163 2.57989 4.59546 2.53942 4.59546 2.48693V1.56019H3.91493V2.48693C3.91493 2.53942 3.8887 2.57986 3.83628 2.60834C3.78379 2.63686 3.72114 2.6511 3.6482 2.6511C3.5752 2.6511 3.51251 2.63689 3.46012 2.60834C3.40763 2.57986 3.38147 2.53942 3.38147 2.48693Z" fill="url(#paint37_linear_32137_1618)"/>
<path d="M5.47107 1.86453V0.958304C5.47107 0.680186 5.54743 0.476108 5.70018 0.346163C5.8529 0.216218 6.05585 0.151245 6.3089 0.151245C6.56421 0.151245 6.76826 0.216218 6.92105 0.346163C7.07377 0.476108 7.15016 0.680155 7.15016 0.958304V1.86453C7.15016 2.14271 7.07374 2.34673 6.92105 2.47667C6.76829 2.60662 6.56421 2.67159 6.3089 2.67159C6.05585 2.67159 5.8529 2.60662 5.70018 2.47667C5.54743 2.34673 5.47107 2.14271 5.47107 1.86453ZM6.00456 1.86453C6.00456 2.09255 6.10599 2.20652 6.3089 2.20652C6.51408 2.20652 6.61667 2.09255 6.61667 1.86453V0.958304C6.61667 0.730351 6.51408 0.616312 6.3089 0.616312C6.10596 0.616312 6.00456 0.730351 6.00456 0.958304V1.86453Z" fill="url(#paint38_linear_32137_1618)"/>
<path d="M7.29724 0.380484C7.29724 0.318492 7.31092 0.264782 7.33828 0.219355C7.36563 0.173927 7.40551 0.151245 7.45796 0.151245H8.9353C8.98772 0.151245 9.02762 0.173927 9.05498 0.219355C9.08234 0.264782 9.09602 0.318492 9.09602 0.380484C9.09602 0.446931 9.08174 0.502837 9.05329 0.548265C9.02477 0.593661 8.98543 0.616312 8.9353 0.616312H8.46336V2.4858C8.46336 2.5386 8.43713 2.57936 8.38471 2.60806C8.33222 2.63677 8.26957 2.65107 8.19663 2.65107C8.12363 2.65107 8.06094 2.63677 8.00855 2.60806C7.95606 2.57936 7.9299 2.5386 7.9299 2.4858V0.616312H7.45796C7.4078 0.616312 7.36846 0.593661 7.33997 0.548265C7.31145 0.502837 7.29724 0.446963 7.29724 0.380484Z" fill="url(#paint39_linear_32137_1618)"/>
<path d="M9.30798 2.48693V0.315386C9.30798 0.262963 9.33076 0.222524 9.37638 0.194006C9.42196 0.16552 9.47667 0.151245 9.54052 0.151245H10.758C10.8104 0.151245 10.8503 0.174053 10.8776 0.219637C10.905 0.265284 10.9187 0.318806 10.9187 0.380359C10.9187 0.446524 10.9044 0.502335 10.8759 0.54792C10.8474 0.593567 10.8081 0.616312 10.758 0.616312H9.84147V1.19426H10.3544C10.4045 1.19426 10.4439 1.21477 10.4724 1.25581C10.5009 1.29685 10.5152 1.34591 10.5152 1.40285C10.5152 1.45534 10.5015 1.50202 10.4741 1.54306C10.4468 1.58409 10.4069 1.60461 10.3544 1.60461H9.84151V2.18598H10.758C10.8081 2.18598 10.8474 2.20878 10.876 2.25437C10.9044 2.29998 10.9187 2.35583 10.9187 2.42193C10.9187 2.48348 10.905 2.53707 10.8777 2.58265C10.8503 2.6283 10.8104 2.65104 10.758 2.65104H9.54055C9.4767 2.65104 9.42196 2.63683 9.37641 2.60828C9.33076 2.57986 9.30798 2.53942 9.30798 2.48693Z" fill="url(#paint40_linear_32137_1618)"/>
<path d="M11.151 2.48693V0.311967C11.151 0.259543 11.1772 0.219637 11.2297 0.19228C11.2821 0.164924 11.3448 0.151245 11.4177 0.151245C11.4907 0.151245 11.5534 0.164924 11.6058 0.19228C11.6582 0.219637 11.6845 0.259543 11.6845 0.311967V2.18601H12.4642C12.512 2.18601 12.5497 2.20881 12.577 2.2544C12.6044 2.30001 12.618 2.35473 12.618 2.41854C12.618 2.48241 12.6044 2.53713 12.577 2.58271C12.5497 2.62836 12.512 2.6511 12.4642 2.6511H11.3835C11.3197 2.6511 11.2649 2.63689 11.2194 2.60834C11.1738 2.57986 11.151 2.53942 11.151 2.48693Z" fill="url(#paint41_linear_32137_1618)"/>
<path d="M12.8319 3.57822H3.16785C3.08183 3.57822 3.01208 3.50848 3.01208 3.42245V3.00489C3.01208 2.91886 3.08183 2.84912 3.16785 2.84912H12.8319C12.918 2.84912 12.9877 2.91886 12.9877 3.00489V3.42245C12.9877 3.50848 12.918 3.57822 12.8319 3.57822Z" fill="url(#paint42_linear_32137_1618)"/>
<path d="M6.12456 4.7865H4.64723C4.61611 4.7865 4.58643 4.7929 4.55945 4.80441L6.33087 6.57583C6.34238 6.54885 6.34881 6.5192 6.34881 6.48805V5.01072C6.34881 4.88708 6.2482 4.7865 6.12456 4.7865Z" fill="url(#paint43_linear_32137_1618)"/>
<path d="M8.73855 4.7865H7.99988V6.71227H8.73855C8.86218 6.71227 8.9628 6.61169 8.9628 6.48805V5.01072C8.9628 4.88708 8.86218 4.7865 8.73855 4.7865Z" fill="url(#paint44_linear_32137_1618)"/>
<path d="M2.45937 7.15198C2.70963 7.15198 2.9132 7.35559 2.9132 7.60584V9.08318C2.9132 9.3334 2.70959 9.53701 2.45937 9.53701H0.982034C0.731775 9.53701 0.528198 9.3334 0.528198 9.08318V7.60584C0.528198 7.35559 0.731806 7.15198 0.982034 7.15198H2.45937Z" fill="url(#paint45_linear_32137_1618)"/>
<path d="M2.45937 9.74707C2.70963 9.74707 2.9132 9.95068 2.9132 10.2009V11.6783C2.9132 11.9285 2.70959 12.1321 2.45937 12.1321H0.982034C0.731775 12.1321 0.528198 11.9285 0.528198 11.6783V10.2009C0.528198 9.95068 0.731806 9.74707 0.982034 9.74707H2.45937Z" fill="url(#paint46_linear_32137_1618)"/>
<path d="M2.45937 12.342C2.70963 12.342 2.9132 12.5456 2.9132 12.7959V14.2732C2.9132 14.5234 2.70959 14.727 2.45937 14.727H0.982034C0.731775 14.727 0.528198 14.5234 0.528198 14.2732V12.7959C0.528198 12.5456 0.731806 12.342 0.982034 12.342H2.45937Z" fill="url(#paint47_linear_32137_1618)"/>
<path d="M0.981941 14.4975C0.858302 14.4975 0.75769 14.3968 0.75769 14.2732V12.7959C0.75769 12.6722 0.858271 12.5717 0.981941 12.5717H2.45927C2.58291 12.5717 2.68353 12.6722 2.68353 12.7959V14.2732C2.68353 14.3968 2.58295 14.4975 2.45927 14.4975H0.981941Z" fill="url(#paint48_linear_32137_1618)"/>
<path d="M0.981941 11.9024C0.858302 11.9024 0.75769 11.8018 0.75769 11.6781V10.2008C0.75769 10.0771 0.858271 9.97656 0.981941 9.97656H2.45927C2.58291 9.97656 2.68353 10.0771 2.68353 10.2008V11.6781C2.68353 11.8018 2.58295 11.9024 2.45927 11.9024H0.981941Z" fill="url(#paint49_linear_32137_1618)"/>
<path d="M0.981941 9.30736C0.858302 9.30736 0.75769 9.20678 0.75769 9.08315V7.60581C0.75769 7.48217 0.858271 7.38159 0.981941 7.38159H2.45927C2.58291 7.38159 2.68353 7.48217 2.68353 7.60581V9.08315C2.68353 9.20678 2.58295 9.30736 2.45927 9.30736H0.981941Z" fill="url(#paint50_linear_32137_1618)"/>
<path d="M15.0177 7.15198C15.268 7.15198 15.4716 7.35559 15.4716 7.60584V9.08318C15.4716 9.3334 15.2679 9.53701 15.0177 9.53701H13.5404C13.2901 9.53701 13.0865 9.3334 13.0865 9.08318V7.60584C13.0865 7.35559 13.2902 7.15198 13.5404 7.15198H15.0177Z" fill="url(#paint51_linear_32137_1618)"/>
<path d="M15.0177 9.74707C15.268 9.74707 15.4716 9.95068 15.4716 10.2009V11.6783C15.4716 11.9285 15.2679 12.1321 15.0177 12.1321H13.5404C13.2901 12.1321 13.0865 11.9285 13.0865 11.6783V10.2009C13.0865 9.95068 13.2902 9.74707 13.5404 9.74707H15.0177Z" fill="url(#paint52_linear_32137_1618)"/>
<path d="M15.0177 12.342C15.268 12.342 15.4716 12.5456 15.4716 12.7959V14.2732C15.4716 14.5234 15.2679 14.727 15.0177 14.727H13.5404C13.2901 14.727 13.0865 14.5234 13.0865 14.2732V12.7959C13.0865 12.5456 13.2902 12.342 13.5404 12.342H15.0177Z" fill="url(#paint53_linear_32137_1618)"/>
<path d="M13.5403 14.4975C13.4167 14.4975 13.316 14.3968 13.316 14.2732V12.7959C13.316 12.6722 13.4166 12.5717 13.5403 12.5717H15.0176C15.1413 12.5717 15.2419 12.6722 15.2419 12.7959V14.2732C15.2419 14.3968 15.1413 14.4975 15.0176 14.4975H13.5403Z" fill="url(#paint54_linear_32137_1618)"/>
<path d="M13.5403 11.9024C13.4167 11.9024 13.316 11.8018 13.316 11.6781V10.2008C13.316 10.0771 13.4166 9.97656 13.5403 9.97656H15.0176C15.1413 9.97656 15.2419 10.0771 15.2419 10.2008V11.6781C15.2419 11.8018 15.1413 11.9024 15.0176 11.9024H13.5403Z" fill="url(#paint55_linear_32137_1618)"/>
<path d="M13.5403 9.30736C13.4167 9.30736 13.316 9.20678 13.316 9.08315V7.60581C13.316 7.48217 13.4166 7.38159 13.5403 7.38159H15.0176C15.1413 7.38159 15.2419 7.48217 15.2419 7.60581V9.08315C15.2419 9.20678 15.1413 9.30736 15.0176 9.30736H13.5403Z" fill="url(#paint56_linear_32137_1618)"/>
<path d="M13.3913 7.43872C13.3452 7.47982 13.316 7.5394 13.316 7.60581V9.08315C13.316 9.20678 13.4166 9.30736 13.5403 9.30736H15.0176C15.084 9.30736 15.1435 9.27822 15.1846 9.23226L13.3913 7.43872Z" fill="url(#paint57_linear_32137_1618)"/>
</g>
<defs>
<linearGradient id="paint0_linear_32137_1618" x1="0.167096" y1="8.82886" x2="4.18652" y2="13.8968" gradientUnits="userSpaceOnUse">
<stop stop-color="#4A98F7"/>
<stop offset="1" stop-color="#0469BC"/>
</linearGradient>
<linearGradient id="paint1_linear_32137_1618" x1="12.2555" y1="9.66227" x2="16.0434" y2="13.4501" gradientUnits="userSpaceOnUse">
<stop stop-color="#4A98F7"/>
<stop offset="1" stop-color="#0469BC"/>
</linearGradient>
<linearGradient id="paint2_linear_32137_1618" x1="15.1999" y1="11.2804" x2="10.3812" y2="11.2804" gradientUnits="userSpaceOnUse">
<stop stop-color="#0469BC" stop-opacity="0"/>
<stop offset="1" stop-color="#0469BC"/>
</linearGradient>
<linearGradient id="paint3_linear_32137_1618" x1="4.50975" y1="6.15179" x2="16.5072" y2="18.1492" gradientUnits="userSpaceOnUse">
<stop stop-color="#4A98F7"/>
<stop offset="1" stop-color="#0469BC"/>
</linearGradient>
<linearGradient id="paint4_linear_32137_1618" x1="6.74239" y1="9.00419" x2="0.501137" y2="4.66151" gradientUnits="userSpaceOnUse">
<stop stop-color="#18CFFC" stop-opacity="0"/>
<stop offset="1" stop-color="#65E1DC"/>
</linearGradient>
<linearGradient id="paint5_linear_32137_1618" x1="11.7673" y1="6.29094" x2="8.07181" y2="4.55604" gradientUnits="userSpaceOnUse">
<stop stop-color="#4A98F7"/>
<stop offset="1" stop-color="#0469BC"/>
</linearGradient>
<linearGradient id="paint6_linear_32137_1618" x1="11.7673" y1="8.88603" x2="8.07181" y2="7.15113" gradientUnits="userSpaceOnUse">
<stop stop-color="#4A98F7"/>
<stop offset="1" stop-color="#0469BC"/>
</linearGradient>
<linearGradient id="paint7_linear_32137_1618" x1="11.7673" y1="11.4811" x2="8.07181" y2="9.74619" gradientUnits="userSpaceOnUse">
<stop stop-color="#4A98F7"/>
<stop offset="1" stop-color="#0469BC"/>
</linearGradient>
<linearGradient id="paint8_linear_32137_1618" x1="6.53952" y1="6.29094" x2="2.84402" y2="4.55604" gradientUnits="userSpaceOnUse">
<stop stop-color="#4A98F7"/>
<stop offset="1" stop-color="#0469BC"/>
</linearGradient>
<linearGradient id="paint9_linear_32137_1618" x1="6.53952" y1="8.88603" x2="2.84402" y2="7.15113" gradientUnits="userSpaceOnUse">
<stop stop-color="#4A98F7"/>
<stop offset="1" stop-color="#0469BC"/>
</linearGradient>
<linearGradient id="paint10_linear_32137_1618" x1="6.53952" y1="11.4811" x2="2.84402" y2="9.74619" gradientUnits="userSpaceOnUse">
<stop stop-color="#4A98F7"/>
<stop offset="1" stop-color="#0469BC"/>
</linearGradient>
<linearGradient id="paint11_linear_32137_1618" x1="9.15329" y1="6.29094" x2="5.45779" y2="4.55604" gradientUnits="userSpaceOnUse">
<stop stop-color="#4A98F7"/>
<stop offset="1" stop-color="#0469BC"/>
</linearGradient>
<linearGradient id="paint12_linear_32137_1618" x1="9.15329" y1="8.88603" x2="5.45779" y2="7.15113" gradientUnits="userSpaceOnUse">
<stop stop-color="#4A98F7"/>
<stop offset="1" stop-color="#0469BC"/>
</linearGradient>
<linearGradient id="paint13_linear_32137_1618" x1="9.15329" y1="11.4811" x2="5.45779" y2="9.74619" gradientUnits="userSpaceOnUse">
<stop stop-color="#4A98F7"/>
<stop offset="1" stop-color="#0469BC"/>
</linearGradient>
<linearGradient id="paint14_linear_32137_1618" x1="8.43439" y1="5.65004" x2="7.37877" y2="0.443425" gradientUnits="userSpaceOnUse">
<stop stop-color="#0469BC" stop-opacity="0"/>
<stop offset="1" stop-color="#0469BC"/>
</linearGradient>
<linearGradient id="paint15_linear_32137_1618" x1="9.70121" y1="8.70187" x2="3.9798" y2="0.190687" gradientUnits="userSpaceOnUse">
<stop stop-color="#0469BC" stop-opacity="0"/>
<stop offset="1" stop-color="#0469BC"/>
</linearGradient>
<linearGradient id="paint16_linear_32137_1618" x1="9.64266" y1="15.4577" x2="9.0447" y2="13.2509" gradientUnits="userSpaceOnUse">
<stop stop-color="#0469BC" stop-opacity="0"/>
<stop offset="1" stop-color="#0469BC"/>
</linearGradient>
<linearGradient id="paint17_linear_32137_1618" x1="6.26929" y1="13.6826" x2="11.8133" y2="16.2853" gradientUnits="userSpaceOnUse">
<stop stop-color="#F9F7FC"/>
<stop offset="1" stop-color="#F0DDFC"/>
</linearGradient>
<linearGradient id="paint18_linear_32137_1618" x1="8.47007" y1="14.7839" x2="7.29765" y2="10.9926" gradientUnits="userSpaceOnUse">
<stop stop-color="#F0DDFC" stop-opacity="0"/>
<stop offset="0.2889" stop-color="#C8B7E0" stop-opacity="0.289"/>
<stop offset="0.5915" stop-color="#A595C8" stop-opacity="0.592"/>
<stop offset="0.8395" stop-color="#8F81B8" stop-opacity="0.84"/>
<stop offset="1" stop-color="#8779B3"/>
</linearGradient>
<linearGradient id="paint19_linear_32137_1618" x1="8.09408" y1="14.8601" x2="7.39382" y2="13.4304" gradientUnits="userSpaceOnUse">
<stop stop-color="#E9EDF5" stop-opacity="0"/>
<stop offset="1" stop-color="white"/>
</linearGradient>
<linearGradient id="paint20_linear_32137_1618" x1="9.02843" y1="14.5436" x2="6.01478" y2="13.6037" gradientUnits="userSpaceOnUse">
<stop stop-color="#F0DDFC" stop-opacity="0"/>
<stop offset="0.2889" stop-color="#C8B7E0" stop-opacity="0.289"/>
<stop offset="0.5915" stop-color="#A595C8" stop-opacity="0.592"/>
<stop offset="0.8395" stop-color="#8F81B8" stop-opacity="0.84"/>
<stop offset="1" stop-color="#8779B3"/>
</linearGradient>
<linearGradient id="paint21_linear_32137_1618" x1="7.9999" y1="12.7833" x2="7.9999" y2="13.2121" gradientUnits="userSpaceOnUse">
<stop stop-color="#FFDA45"/>
<stop offset="1" stop-color="#FFA425"/>
</linearGradient>
<linearGradient id="paint22_linear_32137_1618" x1="4.41673" y1="10.4845" x2="7.52158" y2="11.9421" gradientUnits="userSpaceOnUse">
<stop stop-color="#F9F7FC"/>
<stop offset="1" stop-color="#F0DDFC"/>
</linearGradient>
<linearGradient id="paint23_linear_32137_1618" x1="4.41673" y1="7.88936" x2="7.52158" y2="9.34696" gradientUnits="userSpaceOnUse">
<stop stop-color="#F9F7FC"/>
<stop offset="1" stop-color="#F0DDFC"/>
</linearGradient>
<linearGradient id="paint24_linear_32137_1618" x1="4.41676" y1="5.29439" x2="7.52158" y2="6.75199" gradientUnits="userSpaceOnUse">
<stop stop-color="#F9F7FC"/>
<stop offset="1" stop-color="#F0DDFC"/>
</linearGradient>
<linearGradient id="paint25_linear_32137_1618" x1="9.64451" y1="10.4845" x2="12.7494" y2="11.9421" gradientUnits="userSpaceOnUse">
<stop stop-color="#F9F7FC"/>
<stop offset="1" stop-color="#F0DDFC"/>
</linearGradient>
<linearGradient id="paint26_linear_32137_1618" x1="9.64451" y1="7.88936" x2="12.7494" y2="9.34696" gradientUnits="userSpaceOnUse">
<stop stop-color="#F9F7FC"/>
<stop offset="1" stop-color="#F0DDFC"/>
</linearGradient>
<linearGradient id="paint27_linear_32137_1618" x1="9.64455" y1="5.29439" x2="12.7494" y2="6.75199" gradientUnits="userSpaceOnUse">
<stop stop-color="#F9F7FC"/>
<stop offset="1" stop-color="#F0DDFC"/>
</linearGradient>
<linearGradient id="paint28_linear_32137_1618" x1="7.03074" y1="10.4845" x2="10.1356" y2="11.9421" gradientUnits="userSpaceOnUse">
<stop stop-color="#F9F7FC"/>
<stop offset="1" stop-color="#F0DDFC"/>
</linearGradient>
<linearGradient id="paint29_linear_32137_1618" x1="7.03074" y1="7.88936" x2="10.1356" y2="9.34696" gradientUnits="userSpaceOnUse">
<stop stop-color="#F9F7FC"/>
<stop offset="1" stop-color="#F0DDFC"/>
</linearGradient>
<linearGradient id="paint30_linear_32137_1618" x1="7.03078" y1="5.29439" x2="10.1356" y2="6.75199" gradientUnits="userSpaceOnUse">
<stop stop-color="#F9F7FC"/>
<stop offset="1" stop-color="#F0DDFC"/>
</linearGradient>
<linearGradient id="paint31_linear_32137_1618" x1="3.52434" y1="2.79458" x2="3.75398" y2="2.79458" gradientUnits="userSpaceOnUse">
<stop stop-color="#7E8595"/>
<stop offset="1" stop-color="#555A66"/>
</linearGradient>
<linearGradient id="paint32_linear_32137_1618" x1="4.72038" y1="2.79458" x2="4.95003" y2="2.79458" gradientUnits="userSpaceOnUse">
<stop stop-color="#7E8595"/>
<stop offset="1" stop-color="#555A66"/>
</linearGradient>
<linearGradient id="paint33_linear_32137_1618" x1="6.1801" y1="2.79458" x2="6.40975" y2="2.79458" gradientUnits="userSpaceOnUse">
<stop stop-color="#7E8595"/>
<stop offset="1" stop-color="#555A66"/>
</linearGradient>
<linearGradient id="paint34_linear_32137_1618" x1="8.06608" y1="2.79458" x2="8.29573" y2="2.79458" gradientUnits="userSpaceOnUse">
<stop stop-color="#7E8595"/>
<stop offset="1" stop-color="#555A66"/>
</linearGradient>
<linearGradient id="paint35_linear_32137_1618" x1="9.98283" y1="2.79458" x2="10.2125" y2="2.79458" gradientUnits="userSpaceOnUse">
<stop stop-color="#7E8595"/>
<stop offset="1" stop-color="#555A66"/>
</linearGradient>
<linearGradient id="paint36_linear_32137_1618" x1="11.7543" y1="2.79458" x2="11.984" y2="2.79458" gradientUnits="userSpaceOnUse">
<stop stop-color="#7E8595"/>
<stop offset="1" stop-color="#555A66"/>
</linearGradient>
<linearGradient id="paint37_linear_32137_1618" x1="4.2552" y1="0.48621" x2="4.2552" y2="4.83526" gradientUnits="userSpaceOnUse">
<stop stop-color="#FF7044"/>
<stop offset="1" stop-color="#F92814"/>
</linearGradient>
<linearGradient id="paint38_linear_32137_1618" x1="6.31063" y1="0.48621" x2="6.31063" y2="4.83526" gradientUnits="userSpaceOnUse">
<stop stop-color="#FF7044"/>
<stop offset="1" stop-color="#F92814"/>
</linearGradient>
<linearGradient id="paint39_linear_32137_1618" x1="8.19663" y1="0.48621" x2="8.19663" y2="4.83526" gradientUnits="userSpaceOnUse">
<stop stop-color="#FF7044"/>
<stop offset="1" stop-color="#F92814"/>
</linearGradient>
<linearGradient id="paint40_linear_32137_1618" x1="10.1133" y1="0.48621" x2="10.1133" y2="4.83526" gradientUnits="userSpaceOnUse">
<stop stop-color="#FF7044"/>
<stop offset="1" stop-color="#F92814"/>
</linearGradient>
<linearGradient id="paint41_linear_32137_1618" x1="11.8846" y1="0.48621" x2="11.8846" y2="4.83526" gradientUnits="userSpaceOnUse">
<stop stop-color="#FF7044"/>
<stop offset="1" stop-color="#F92814"/>
</linearGradient>
<linearGradient id="paint42_linear_32137_1618" x1="7.99988" y1="2.89662" x2="7.99988" y2="4.09449" gradientUnits="userSpaceOnUse">
<stop stop-color="#FFDA45"/>
<stop offset="1" stop-color="#FFA425"/>
</linearGradient>
<linearGradient id="paint43_linear_32137_1618" x1="6.69629" y1="6.50703" x2="3.189" y2="1.8846" gradientUnits="userSpaceOnUse">
<stop stop-color="#F0DDFC" stop-opacity="0"/>
<stop offset="0.2889" stop-color="#C8B7E0" stop-opacity="0.289"/>
<stop offset="0.5915" stop-color="#A595C8" stop-opacity="0.592"/>
<stop offset="0.8395" stop-color="#8F81B8" stop-opacity="0.84"/>
<stop offset="1" stop-color="#8779B3"/>
</linearGradient>
<linearGradient id="paint44_linear_32137_1618" x1="8.60336" y1="6.48808" x2="7.7696" y2="2.13392" gradientUnits="userSpaceOnUse">
<stop stop-color="#F0DDFC" stop-opacity="0"/>
<stop offset="0.2889" stop-color="#C8B7E0" stop-opacity="0.289"/>
<stop offset="0.5915" stop-color="#A595C8" stop-opacity="0.592"/>
<stop offset="0.8395" stop-color="#8F81B8" stop-opacity="0.84"/>
<stop offset="1" stop-color="#8779B3"/>
</linearGradient>
<linearGradient id="paint45_linear_32137_1618" x1="2.87424" y1="8.88603" x2="-0.821292" y2="7.15113" gradientUnits="userSpaceOnUse">
<stop stop-color="#4A98F7"/>
<stop offset="1" stop-color="#0469BC"/>
</linearGradient>
<linearGradient id="paint46_linear_32137_1618" x1="2.87424" y1="11.4811" x2="-0.821292" y2="9.74622" gradientUnits="userSpaceOnUse">
<stop stop-color="#4A98F7"/>
<stop offset="1" stop-color="#0469BC"/>
</linearGradient>
<linearGradient id="paint47_linear_32137_1618" x1="2.87421" y1="14.0761" x2="-0.821292" y2="12.3412" gradientUnits="userSpaceOnUse">
<stop stop-color="#4A98F7"/>
<stop offset="1" stop-color="#0469BC"/>
</linearGradient>
<linearGradient id="paint48_linear_32137_1618" x1="0.751447" y1="13.0795" x2="3.85626" y2="14.5371" gradientUnits="userSpaceOnUse">
<stop stop-color="#F9F7FC"/>
<stop offset="1" stop-color="#F0DDFC"/>
</linearGradient>
<linearGradient id="paint49_linear_32137_1618" x1="0.751447" y1="10.4845" x2="3.85626" y2="11.9421" gradientUnits="userSpaceOnUse">
<stop stop-color="#F9F7FC"/>
<stop offset="1" stop-color="#F0DDFC"/>
</linearGradient>
<linearGradient id="paint50_linear_32137_1618" x1="0.751447" y1="7.88948" x2="3.85626" y2="9.34708" gradientUnits="userSpaceOnUse">
<stop stop-color="#F9F7FC"/>
<stop offset="1" stop-color="#F0DDFC"/>
</linearGradient>
<linearGradient id="paint51_linear_32137_1618" x1="15.4326" y1="8.88603" x2="11.7371" y2="7.15113" gradientUnits="userSpaceOnUse">
<stop stop-color="#4A98F7"/>
<stop offset="1" stop-color="#0469BC"/>
</linearGradient>
<linearGradient id="paint52_linear_32137_1618" x1="15.4326" y1="11.4811" x2="11.7371" y2="9.74622" gradientUnits="userSpaceOnUse">
<stop stop-color="#4A98F7"/>
<stop offset="1" stop-color="#0469BC"/>
</linearGradient>
<linearGradient id="paint53_linear_32137_1618" x1="15.4326" y1="14.0761" x2="11.7371" y2="12.3412" gradientUnits="userSpaceOnUse">
<stop stop-color="#4A98F7"/>
<stop offset="1" stop-color="#0469BC"/>
</linearGradient>
<linearGradient id="paint54_linear_32137_1618" x1="13.3098" y1="13.0795" x2="16.4146" y2="14.5371" gradientUnits="userSpaceOnUse">
<stop stop-color="#F9F7FC"/>
<stop offset="1" stop-color="#F0DDFC"/>
</linearGradient>
<linearGradient id="paint55_linear_32137_1618" x1="13.3098" y1="10.4845" x2="16.4146" y2="11.9421" gradientUnits="userSpaceOnUse">
<stop stop-color="#F9F7FC"/>
<stop offset="1" stop-color="#F0DDFC"/>
</linearGradient>
<linearGradient id="paint56_linear_32137_1618" x1="13.3098" y1="7.88948" x2="16.4146" y2="9.34708" gradientUnits="userSpaceOnUse">
<stop stop-color="#F9F7FC"/>
<stop offset="1" stop-color="#F0DDFC"/>
</linearGradient>
<linearGradient id="paint57_linear_32137_1618" x1="14.7905" y1="9.80597" x2="10.6809" y2="5.19784" gradientUnits="userSpaceOnUse">
<stop stop-color="#F0DDFC" stop-opacity="0"/>
<stop offset="0.2889" stop-color="#C8B7E0" stop-opacity="0.289"/>
<stop offset="0.5915" stop-color="#A595C8" stop-opacity="0.592"/>
<stop offset="0.8395" stop-color="#8F81B8" stop-opacity="0.84"/>
<stop offset="1" stop-color="#8779B3"/>
</linearGradient>
<clipPath id="clip0_32137_1618">
<rect width="16" height="16" fill="white"/>
</clipPath>
</defs>
</svg>
