<svg width="90" height="124" viewBox="0 0 90 124" fill="none" xmlns="http://www.w3.org/2000/svg">
<g clip-path="url(#clip0_32182_1497)">
<path d="M88.9575 69.6932C93.4289 45.3301 77.3036 21.9551 52.9406 17.4837C28.5775 13.0122 5.20256 29.1376 0.731106 53.5006C-3.74035 77.8636 12.385 101.239 36.748 105.71C61.111 110.182 84.486 94.0562 88.9575 69.6932Z" fill="#5A7BC1"/>
<path d="M70.28 60.82C64.43 62.44 58.87 64.93 53.45 67.63C53.57 67.14 53.69 66.65 53.81 66.15C54.6 62.91 55.38 59.67 56.14 56.43C64.18 49.37 97.08 5.45 77.91 0.0499979C69.92 -0.810002 65.1 9.06 61.74 14.96C55.45 26.81 52.95 40.07 50.04 53.04C42.85 60.06 34.73 66.58 25.2 70.06C8.5 75.44 10.42 62.74 19.93 54.33C24.92 50.06 31.65 48.21 38.14 48.67C39.19 48.58 40.25 48.9 41.3 49.23C42.8 49.7 44.26 50.16 45.63 49.39C48.09 48.05 47.66 44.18 45.07 43.33C30.93 38.46 14.07 45.87 7.75 59.39C2.78 68.89 8.17 78.54 19.15 78.05C29.82 77.4 39.17 71.03 47.31 64.57C46.8 66.66 46.27 68.75 45.74 70.84C45.63 71.26 45.52 71.69 45.41 72.11C35.84 77.93 26.87 85.1 20.42 94.36C16.47 100.05 12.72 106.66 13.15 113.81C13.41 117.73 15.53 122.03 19.63 122.99C20.46 123.14 21.26 123.21 22.05 123.21C39.19 123.21 47.46 89.48 51.2 76.47C57.83 72.76 64.74 69.38 72.07 67.3C76.28 66.08 74.52 59.71 70.29 60.83L70.28 60.82ZM60.4 37.86C62.5 29.56 68.93 10.45 76.77 6.68C78.18 16.91 65.43 34.73 59.22 42.79C59.59 41.14 59.98 39.5 60.4 37.86ZM22.37 116.54C19.91 116.94 19.76 113.7 19.82 111.96C20.2 107.38 22.58 103.26 25.02 99.47C29.67 92.45 35.91 86.66 42.76 81.82C39.83 91.03 33.06 114.95 22.37 116.53V116.54Z" fill="white"/>
</g>
<defs>
<clipPath id="clip0_32182_1497">
<rect width="89.7" height="123.2" fill="white"/>
</clipPath>
</defs>
</svg>
