<svg width="16" height="16" viewBox="0 0 16 16" fill="none" xmlns="http://www.w3.org/2000/svg">
<g clip-path="url(#clip0_32137_1739)">
<path fill-rule="evenodd" clip-rule="evenodd" d="M7.58865 15.6563V4.97241L5.36993 4.02394L1.65787 5.61072V15.6563H7.58865Z" fill="#909CD1"/>
<path fill-rule="evenodd" clip-rule="evenodd" d="M5.36993 15.6563H7.58865V4.97241L5.36993 4.02394V15.6563Z" fill="#7986BF"/>
<path fill-rule="evenodd" clip-rule="evenodd" d="M14.3421 15.6562H7.21262V1.86759L10.7774 0.34375L14.3421 1.86759V15.6562Z" fill="#AEAED6"/>
<path fill-rule="evenodd" clip-rule="evenodd" d="M10.7774 15.6562H7.21262V1.86759L10.7774 0.34375V15.6562Z" fill="#D1D1F0"/>
<path fill-rule="evenodd" clip-rule="evenodd" d="M13.2634 2.74341C13.2634 2.63985 13.3474 2.55591 13.4509 2.55591C13.5545 2.55591 13.6384 2.63985 13.6384 2.74341V13.9064C13.6384 14.0099 13.5545 14.0939 13.4509 14.0939C13.3474 14.0939 13.2634 14.0099 13.2634 13.9064V2.74341ZM11.481 1.98151C11.481 1.87794 11.565 1.79401 11.6685 1.79401C11.7721 1.79401 11.856 1.87794 11.856 1.98151V13.9064C11.856 14.0099 11.7721 14.0939 11.6685 14.0939C11.565 14.0939 11.481 14.0099 11.481 13.9064V1.98151ZM12.3722 2.36244C12.3722 2.25888 12.4562 2.17494 12.5597 2.17494C12.6633 2.17494 12.7472 2.25888 12.7472 2.36244V13.9064C12.7472 14.0099 12.6633 14.0939 12.5597 14.0939C12.4562 14.0939 12.3722 14.0099 12.3722 13.9064V2.36244Z" fill="#F3F3FF"/>
<path fill-rule="evenodd" clip-rule="evenodd" d="M4.21099 15.6563H2.8168V12.2503L4.21099 12.1177V15.6563Z" fill="#F3F3FF"/>
<path fill-rule="evenodd" clip-rule="evenodd" d="M9.07059 10.0991V8.72865L9.82987 8.61137V10.0263L9.07059 10.0991ZM9.07059 7.93965V6.57031L9.82987 6.38293V7.79674L9.07059 7.93965ZM9.07059 5.78131V4.41087L9.82987 4.1534V5.56834L9.07059 5.78131ZM9.07059 3.62296L9.07037 2.33981L9.82984 2.01396V3.33993L9.07056 3.62296H9.07059ZM7.71434 10.2281V8.93918L8.38812 8.83527V10.1636L7.71434 10.2281ZM7.71434 8.19593V6.90393L8.38837 6.73781V8.06931L7.71434 8.19593ZM7.71434 6.16281V4.87071L8.38837 4.64243V5.97402L7.71434 6.16284V6.16281ZM7.71434 4.12712V2.92087L8.38856 2.63187L8.38837 3.87715L7.71434 4.12712Z" fill="#AEAED6"/>
<path fill-rule="evenodd" clip-rule="evenodd" d="M9.29349 10.0777V8.69423L10.0528 8.57694V10.0049L9.29349 10.0777ZM9.29349 7.89773V6.51532L10.0528 6.32794V7.75479L9.29349 7.89769V7.89773ZM9.29349 5.71882V4.33532L10.0528 4.07785V5.50585L9.29349 5.71882ZM9.29349 3.53988L9.2933 2.24416L10.0528 1.91832V3.25685L9.29349 3.53988ZM7.93724 10.2068V8.90485L8.61105 8.80094V10.1423L7.93724 10.2068ZM7.93724 8.15407V6.84901L8.61127 6.68288V8.02744L7.93724 8.15407ZM7.93724 6.10032V4.79526L8.61127 4.56698V5.91154L7.93724 6.10032ZM7.93724 4.04448V2.82526L8.61146 2.53626L8.61127 3.79451L7.93724 4.04444V4.04448Z" fill="#F3F3FF"/>
<path fill-rule="evenodd" clip-rule="evenodd" d="M8.01662 15.6562V11.6834L8.2979 11.6566V15.6562H8.01662Z" fill="#AEAED6"/>
<path fill-rule="evenodd" clip-rule="evenodd" d="M9.69209 15.6563H8.2979V11.6566L9.69209 11.5239V15.6563Z" fill="#F3F3FF"/>
<path fill-rule="evenodd" clip-rule="evenodd" d="M7.87303 11.8848C7.77028 11.8944 7.67912 11.819 7.66943 11.7163C7.65974 11.6135 7.73515 11.5224 7.8379 11.5127L9.94328 11.3123C10.046 11.3026 10.1372 11.378 10.1469 11.4808C10.1566 11.5835 10.0812 11.6747 9.9784 11.6843L7.87303 11.8848Z" fill="#AEAED6"/>
<path fill-rule="evenodd" clip-rule="evenodd" d="M3.3564 10.4705V9.35391L3.98799 9.22357V10.3834L3.3564 10.4705ZM3.3564 8.71063V7.59369L3.98799 7.3941V8.55503L3.3564 8.71063ZM3.35621 6.95116V5.90563L3.98799 5.63791V6.72632L3.35621 6.95119V6.95116ZM2.24706 10.6232V9.58153L2.79546 9.46891V10.5481L2.24706 10.6232ZM2.24706 8.98438V7.94303L2.79546 7.77063V8.84953L2.24706 8.98441V8.98438ZM2.24706 7.34413V6.3725L2.79581 6.14138L2.79565 7.15016L2.24706 7.34413Z" fill="#7986BF"/>
<path fill-rule="evenodd" clip-rule="evenodd" d="M3.56033 10.4423V9.31181L4.19193 9.18147V10.3553L3.56033 10.4423ZM3.56033 8.66044V7.52922L4.19193 7.32963V8.50484L3.56033 8.66044ZM3.56015 6.87853V5.81916L4.19193 5.55144V6.65366L3.56015 6.87853ZM2.45099 10.595V9.53941L2.9994 9.42678V10.52L2.45099 10.5951V10.595ZM2.45099 8.93416V7.87853L2.9994 7.70612V8.79931L2.45099 8.93419V8.93416ZM2.45099 7.27194V6.286L2.99974 6.05484L2.99958 7.07794L2.45102 7.27191L2.45099 7.27194Z" fill="#F3F3FF"/>
<path fill-rule="evenodd" clip-rule="evenodd" d="M2.8168 15.6562H2.58386V12.2725L2.8168 12.2503V15.6562Z" fill="#7986BF"/>
<path d="M0.361069 14.8747H15.6389V15.6563H0.361069V14.8747Z" fill="#E6B17C"/>
<path d="M0.361069 15.2655H15.6389V15.6563H0.361069V15.2655Z" fill="#D19458"/>
<path fill-rule="evenodd" clip-rule="evenodd" d="M2.56565 12.4619C2.4629 12.4716 2.37175 12.3962 2.36206 12.2935C2.35237 12.1907 2.42778 12.0996 2.53053 12.0899L4.46215 11.906C4.5649 11.8963 4.65606 11.9718 4.66575 12.0745C4.67543 12.1773 4.60003 12.2684 4.49728 12.2781L2.56565 12.4619Z" fill="#3D4A75"/>
</g>
<defs>
<clipPath id="clip0_32137_1739">
<rect width="16" height="16" fill="white"/>
</clipPath>
</defs>
</svg>
