<svg width="24" height="24" viewBox="0 0 24 24" fill="none" xmlns="http://www.w3.org/2000/svg">
<g clip-path="url(#clip0_95_2214)">
<path d="M18.5763 13.453C17.9161 10.1305 21.0698 8.18184 21.0698 8.18184C21.0698 8.18184 19.8411 6.4042 17.7761 5.94688C15.7121 5.48857 14.6791 6.06119 13.6481 6.49067C12.6162 6.92119 12.1012 6.92119 12.1012 6.92119C10.612 6.92119 9.5233 5.34437 6.68588 6.06224C4.7311 6.55555 2.67329 8.81214 2.30149 11.5054C1.92969 14.1997 2.73202 17.6376 4.27895 20.302C5.82588 22.9685 7.4017 23.9706 8.52015 23.9994C9.63866 24.0272 10.7551 23.1981 12.1012 22.9963C13.4484 22.7964 14.2774 23.4845 15.5988 23.8563C16.915 24.2271 17.3765 23.8831 18.8925 22.5936C20.4126 21.3041 21.7887 17.6057 21.7887 17.6057C21.7887 17.6057 19.2365 16.7776 18.5763 13.453Z" fill="#171725"/>
<path d="M15.6534 3.79731C17.1158 2.30705 16.6205 0 16.6205 0C16.6205 0 14.5668 0.360484 13.1908 1.79206C11.8159 3.22469 12.0435 5.48743 12.0435 5.48743C12.0435 5.48743 14.1909 5.28661 15.6534 3.79731Z" fill="#171725"/>
</g>
<defs>
<clipPath id="clip0_95_2214">
<rect width="24" height="24" fill="white"/>
</clipPath>
</defs>
</svg>
