<svg width="16" height="16" viewBox="0 0 16 16" fill="none" xmlns="http://www.w3.org/2000/svg">
<path d="M14.5 6.4525V14.5H10.75V5.75L14.5 6.4525Z" fill="#FAB400"/>
<path d="M14.5 6.4525V6.9575L10.75 6.2525V5.75L14.5 6.4525Z" fill="#DC9600"/>
<path d="M14.7502 6.75C14.735 6.75 14.7195 6.7485 14.704 6.7455L10.704 5.9955C10.5683 5.97 10.479 5.8395 10.5042 5.70375C10.5297 5.56825 10.6607 5.4785 10.796 5.50425L14.796 6.25425C14.9317 6.27975 15.021 6.41025 14.9957 6.546C14.9732 6.66625 14.8682 6.75 14.7502 6.75Z" fill="#0A5078"/>
<path d="M1.25 15H14.75C14.888 15 15 14.888 15 14.75C15 14.612 14.888 14.5 14.75 14.5H1.25C1.112 14.5 1 14.612 1 14.75C1 14.888 1.112 15 1.25 15Z" fill="#0A5078"/>
<path d="M13.5 13H11.75C11.612 13 11.5 12.888 11.5 12.75V11.75C11.5 11.612 11.612 11.5 11.75 11.5H13.5C13.638 11.5 13.75 11.612 13.75 11.75V12.75C13.75 12.888 13.638 13 13.5 13Z" fill="#DC9600"/>
<path d="M13.5 9.125H11.75C11.612 9.125 11.5 9.013 11.5 8.875V7.875C11.5 7.737 11.612 7.625 11.75 7.625H13.5C13.638 7.625 13.75 7.737 13.75 7.875V8.875C13.75 9.013 13.638 9.125 13.5 9.125Z" fill="#DC9600"/>
<path d="M13.5 8.875H11.75C11.612 8.875 11.5 8.763 11.5 8.625V7.625C11.5 7.487 11.612 7.375 11.75 7.375H13.5C13.638 7.375 13.75 7.487 13.75 7.625V8.625C13.75 8.763 13.638 8.875 13.5 8.875Z" fill="#F0F0F0"/>
<path d="M13.5 7.625V8.625H11.75V7.625H13.5Z" fill="#00A0C8"/>
<path d="M10.625 10.25H14.5V10.75H10.625V10.25Z" fill="#DC9600"/>
<path d="M14.75 10.5H10.5C10.362 10.5 10.25 10.3882 10.25 10.25C10.25 10.1118 10.362 10 10.5 10H14.75C14.888 10 15 10.1118 15 10.25C15 10.3882 14.888 10.5 14.75 10.5Z" fill="#0A5078"/>
<path d="M13.5 12.75H11.75C11.612 12.75 11.5 12.638 11.5 12.5V11.5C11.5 11.362 11.612 11.25 11.75 11.25H13.5C13.638 11.25 13.75 11.362 13.75 11.5V12.5C13.75 12.638 13.638 12.75 13.5 12.75Z" fill="#F0F0F0"/>
<path d="M13.5 11.5V12.5H11.75V11.5H13.5Z" fill="#00A0C8"/>
<path d="M13.875 13.75V14.5H11.375V13.75C11.375 13.6125 11.4875 13.5 11.625 13.5C11.7625 13.5 11.875 13.6125 11.875 13.75V13.5C11.875 13.3625 11.9875 13.25 12.125 13.25C12.2625 13.25 12.375 13.3625 12.375 13.5V13.75C12.375 13.6125 12.4875 13.5 12.625 13.5C12.7625 13.5 12.875 13.6125 12.875 13.75V13.5C12.875 13.3625 12.9875 13.25 13.125 13.25C13.2625 13.25 13.375 13.3625 13.375 13.5V13.75C13.375 13.6125 13.4875 13.5 13.625 13.5C13.7625 13.5 13.875 13.6125 13.875 13.75Z" fill="#00A0C8"/>
<path d="M11.75 14.25C11.819 14.25 11.875 14.194 11.875 14.125C11.875 14.056 11.819 14 11.75 14C11.681 14 11.625 14.056 11.625 14.125C11.625 14.194 11.681 14.25 11.75 14.25Z" fill="#C80A50"/>
<path d="M13.125 14C13.194 14 13.25 13.944 13.25 13.875C13.25 13.806 13.194 13.75 13.125 13.75C13.056 13.75 13 13.806 13 13.875C13 13.944 13.056 14 13.125 14Z" fill="#C80A50"/>
<path d="M12.75 14.25C12.819 14.25 12.875 14.194 12.875 14.125C12.875 14.056 12.819 14 12.75 14C12.681 14 12.625 14.056 12.625 14.125C12.625 14.194 12.681 14.25 12.75 14.25Z" fill="#C80A50"/>
<path d="M1.5 9.75H5.375V14.5H1.5V9.75Z" fill="#FAB400"/>
<path d="M1.5 9.75H5.375V10.25H1.5V9.75Z" fill="#DC9600"/>
<path d="M5.125 10H1.25C1.112 10 1 9.888 1 9.75C1 9.612 1.112 9.5 1.25 9.5H5.125C5.263 9.5 5.375 9.612 5.375 9.75C5.375 9.888 5.263 10 5.125 10Z" fill="#0A5078"/>
<path d="M1.625 7.75H2.125V9.75H1.625V7.75Z" fill="#0A5078"/>
<path d="M2.875 7.75H3.375V9.75H2.875V7.75Z" fill="#0A5078"/>
<path d="M4.125 7.75H4.625V9.75H4.125V7.75Z" fill="#0A5078"/>
<path d="M1.625 7.75H2.125V8.25H1.625V7.75Z" fill="#00325A"/>
<path d="M2.875 7.75H3.375V8.25H2.875V7.75Z" fill="#00325A"/>
<path d="M4.125 7.75H4.625V8.25H4.125V7.75Z" fill="#00325A"/>
<path d="M5.125 8H1.25C1.112 8 1 7.888 1 7.75C1 7.612 1.112 7.5 1.25 7.5H5.125C5.263 7.5 5.375 7.612 5.375 7.75C5.375 7.888 5.263 8 5.125 8Z" fill="#0A5078"/>
<path d="M4.875 11.5V14.5H2V11.5C2 11.225 2.225 11 2.5 11H4.375C4.65 11 4.875 11.225 4.875 11.5Z" fill="#F0F0F0"/>
<path d="M4.375 11.25H2.5C2.362 11.25 2.25 11.362 2.25 11.5V14.5H4.625V11.5C4.625 11.362 4.513 11.25 4.375 11.25Z" fill="#C80A50"/>
<path d="M3.6875 14.25H3.1875C3.1185 14.25 3.0625 14.194 3.0625 14.125C3.0625 14.056 3.1185 14 3.1875 14H3.6875C3.7565 14 3.8125 14.056 3.8125 14.125C3.8125 14.194 3.7565 14.25 3.6875 14.25Z" fill="#0A5078"/>
<path d="M2.25 13.25H4.625V13.75H2.25V13.25Z" fill="#A00028"/>
<path d="M2.25 12H4.625V12.5H2.25V12Z" fill="#A00028"/>
<path d="M10.75 3.5V14.5H5.25V3.5L8 1.25L10.75 3.5Z" fill="#F0F0F0"/>
<path d="M10.75 3.5V4.155L8 1.8275L5.25 4.155V3.5L8 1.25L10.75 3.5Z" fill="#D2D2D2"/>
<path d="M11.25 4.25001C11.193 4.25001 11.1355 4.23051 11.0885 4.19101L8 1.57751L4.9115 4.19101C4.806 4.27976 4.64825 4.26726 4.55925 4.16151C4.47 4.05626 4.48325 3.89851 4.5885 3.80926L7.8385 1.05926C7.93175 0.980756 8.06825 0.980756 8.1615 1.05926L11.4115 3.80926C11.5168 3.89851 11.53 4.05626 11.4408 4.16151C11.3913 4.22001 11.321 4.25001 11.25 4.25001Z" fill="#0A5078"/>
<path d="M9.75 12.75V14.5H6.25V12.75C6.25 11.7875 7.0375 11 8 11C8.48 11 8.92 11.1975 9.235 11.515C9.5525 11.83 9.75 12.27 9.75 12.75Z" fill="#FAB400"/>
<path d="M9.375 12.75V14.5H6.625V12.75C6.625 11.9875 7.245 11.375 8 11.375C8.7425 11.375 9.375 11.9725 9.375 12.75Z" fill="#C80A50"/>
<path d="M8 10C8.69036 10 9.25 9.44036 9.25 8.75C9.25 8.05964 8.69036 7.5 8 7.5C7.30964 7.5 6.75 8.05964 6.75 8.75C6.75 9.44036 7.30964 10 8 10Z" fill="#D2D2D2"/>
<path d="M8 9.75C8.69036 9.75 9.25 9.19036 9.25 8.5C9.25 7.80964 8.69036 7.25 8 7.25C7.30964 7.25 6.75 7.80964 6.75 8.5C6.75 9.19036 7.30964 9.75 8 9.75Z" fill="#0A5078"/>
<path d="M8 9.25C8.41421 9.25 8.75 8.91421 8.75 8.5C8.75 8.08579 8.41421 7.75 8 7.75C7.58579 7.75 7.25 8.08579 7.25 8.5C7.25 8.91421 7.58579 9.25 8 9.25Z" fill="#00A0C8"/>
<path d="M8.75 8.5C8.75 8.5425 8.7475 8.585 8.7375 8.625C8.68 8.27 8.3725 8 8 8C7.6275 8 7.32 8.27 7.2625 8.625C7.2525 8.585 7.25 8.5425 7.25 8.5C7.25 8.085 7.585 7.75 8 7.75C8.415 7.75 8.75 8.085 8.75 8.5Z" fill="#0082AA"/>
<path d="M8 6.5C8.69036 6.5 9.25 5.94036 9.25 5.25C9.25 4.55964 8.69036 4 8 4C7.30964 4 6.75 4.55964 6.75 5.25C6.75 5.94036 7.30964 6.5 8 6.5Z" fill="#D2D2D2"/>
<path d="M8 6.25C8.69036 6.25 9.25 5.69036 9.25 5C9.25 4.30964 8.69036 3.75 8 3.75C7.30964 3.75 6.75 4.30964 6.75 5C6.75 5.69036 7.30964 6.25 8 6.25Z" fill="#0A5078"/>
<path d="M8 5.75C8.41421 5.75 8.75 5.41421 8.75 5C8.75 4.58579 8.41421 4.25 8 4.25C7.58579 4.25 7.25 4.58579 7.25 5C7.25 5.41421 7.58579 5.75 8 5.75Z" fill="#00A0C8"/>
<path d="M8.75 5C8.75 5.0425 8.7475 5.085 8.7375 5.125C8.68 4.77 8.3725 4.5 8 4.5C7.6275 4.5 7.32 4.77 7.2625 5.125C7.2525 5.085 7.25 5.0425 7.25 5C7.25 4.585 7.585 4.25 8 4.25C8.415 4.25 8.75 4.585 8.75 5Z" fill="#0082AA"/>
<path d="M8.875 11.69V14.5H8.375V11.43C8.56 11.48 8.73 11.57 8.875 11.69Z" fill="#A00028"/>
<path d="M7.625 11.43V14.5H7.125V11.69C7.27 11.57 7.44 11.48 7.625 11.43Z" fill="#A00028"/>
<path d="M7.25 13.5H7C6.931 13.5 6.875 13.444 6.875 13.375C6.875 13.306 6.931 13.25 7 13.25H7.25C7.319 13.25 7.375 13.306 7.375 13.375C7.375 13.444 7.319 13.5 7.25 13.5Z" fill="#F0F0F0"/>
<path d="M13.1035 4.25H12.6035C12.4653 4.25 12.3535 4.138 12.3535 4C12.3535 3.862 12.4653 3.75 12.6035 3.75H13.1035C13.2418 3.75 13.3535 3.862 13.3535 4C13.3535 4.138 13.2418 4.25 13.1035 4.25Z" fill="#C80A50"/>
<path d="M12.4268 5.42675L12.0733 5.07325C11.9755 4.9755 11.9755 4.8175 12.0733 4.71975C12.171 4.622 12.329 4.622 12.4268 4.71975L12.7803 5.07325C12.878 5.171 12.878 5.329 12.7803 5.42675C12.6825 5.5245 12.5245 5.5245 12.4268 5.42675Z" fill="#00A0C8"/>
<path d="M12.0733 3.28025C11.9755 3.1825 11.9755 3.0245 12.0733 2.92675L12.4268 2.57325C12.5245 2.4755 12.6825 2.4755 12.7803 2.57325C12.878 2.671 12.878 2.829 12.7803 2.92675L12.4268 3.28025C12.329 3.378 12.171 3.378 12.0733 3.28025Z" fill="#FAB400"/>
<path d="M2.8965 3.75H3.3965C3.53475 3.75 3.6465 3.862 3.6465 4C3.6465 4.138 3.53475 4.25 3.3965 4.25H2.8965C2.75825 4.25 2.6465 4.138 2.6465 4C2.6465 3.862 2.75825 3.75 2.8965 3.75Z" fill="#C80A50"/>
<path d="M3.57325 2.57325L3.92675 2.92675C4.0245 3.0245 4.0245 3.1825 3.92675 3.28025C3.829 3.378 3.671 3.378 3.57325 3.28025L3.21975 2.92675C3.122 2.829 3.122 2.671 3.21975 2.57325C3.3175 2.4755 3.4755 2.4755 3.57325 2.57325Z" fill="#00A0C8"/>
<path d="M3.92675 4.71975C4.0245 4.8175 4.0245 4.9755 3.92675 5.07325L3.57325 5.42675C3.4755 5.5245 3.3175 5.5245 3.21975 5.42675C3.122 5.329 3.122 5.171 3.21975 5.07325L3.57325 4.71975C3.671 4.622 3.829 4.622 3.92675 4.71975Z" fill="#FAB400"/>
</svg>
